HIERARCHY
ROOT hip
{
	OFFSET 0.000000 0.000000 0.000000 
	CHANNELS 6 Xposition Yposition Zposition Xrotation Zrotation Yrotation
	JOINT abdomen
	{
		OFFSET 0.000000 3.402643 0.000000 
		CHANNELS 3 Xrotation Zrotation Yrotation
		JOINT chest
		{
			OFFSET 0.000000 8.438565 -0.680529 
			CHANNELS 3 Xrotation Zrotation Yrotation
			JOINT neck
			{
				OFFSET 0.000000 10.207942 -0.272212 
				CHANNELS 3 Xrotation Zrotation Yrotation
				JOINT head
				{
					OFFSET 0.000000 3.130431 0.000000 
					CHANNELS 3 Xrotation Zrotation Yrotation
					End Site
					{
						OFFSET 0.000000 3.130435 0.000000 
					}
				}
			}
			JOINT lCollar
			{
				OFFSET 3.470700 6.669187 -0.816635 
				CHANNELS 3 Yrotation Zrotation Xrotation
				JOINT lShldr
				{
					OFFSET 3.198488 0.000000 0.000000 
					CHANNELS 3 Zrotation Yrotation Xrotation
					JOINT lForeArm
					{
						OFFSET 10.139888 0.000000 0.000000 
						CHANNELS 3 Yrotation Zrotation Xrotation
						JOINT lHand
						{
							OFFSET 8.370511 0.000000 0.000000 
							CHANNELS 3 Zrotation Yrotation Xrotation
							End Site
							{
								OFFSET 4.083176 0.000000 0.000000 
							}
						}
					}
				}
			}
			JOINT rCollar
			{
				OFFSET -3.470700 6.669187 -0.816635 
				CHANNELS 3 Yrotation Zrotation Xrotation
				JOINT rShldr
				{
					OFFSET -3.198488 0.000000 0.000000 
					CHANNELS 3 Zrotation Yrotation Xrotation
					JOINT rForeArm
					{
						OFFSET -10.139888 0.000000 0.000000 
						CHANNELS 3 Yrotation Zrotation Xrotation
						JOINT rHand
						{
							OFFSET -8.370511 0.000000 0.000000 
							CHANNELS 3 Zrotation Yrotation Xrotation
							End Site
							{
								OFFSET -4.083176 0.000000 0.000000 
							}
						}
					}
				}
			}
		}
	}
	JOINT lThigh
	{
		OFFSET 5.308129 -1.633274 1.361059 
		CHANNELS 3 Xrotation Zrotation Yrotation
		JOINT lShin
		{
			OFFSET -2.041588 -20.007561 0.000000 
			CHANNELS 3 Xrotation Zrotation Yrotation
			JOINT lFoot
			{
				OFFSET 0.000000 -19.190928 -1.224953 
				CHANNELS 3 Xrotation Yrotation Zrotation
				End Site
				{
					OFFSET 0.000000 -2.449906 4.627600 
				}
			}
		}
	}
	JOINT rThigh
	{
		OFFSET -5.308129 -1.633274 1.361059 
		CHANNELS 3 Xrotation Zrotation Yrotation
		JOINT rShin
		{
			OFFSET 2.041588 -20.007561 0.000000 
			CHANNELS 3 Xrotation Zrotation Yrotation
			JOINT rFoot
			{
				OFFSET 0.000000 -19.190928 -1.224953 
				CHANNELS 3 Xrotation Yrotation Zrotation
				End Site
				{
					OFFSET 0.000000 -2.449906 4.627600 
				}
			}
		}
	}
}
MOTION
Frames: 20
Frame Time: 0.016667
-2.220567 45.159328 -0.483464 -4.417910 -7.984330 2.303770 -23.724100 3.757210 -0.840158 11.901200 4.943340 -0.175088 15.704185 -8.860487 -16.940392 15.634500 10.369800 -1.697210 2.000000 -2.000000 0.000000 92.622902 164.791000 -6.530020 41.592201 -0.317098 0.090813 0.053658 -0.053047 -156.227997 -2.000000 2.000000 0.000000 -5.630970 21.001801 76.054001 -33.008202 0.329498 0.074480 179.891006 179.880005 -5.476350 -8.089677 7.681111 -2.858059 38.332790 3.117237 2.567377 -18.572302 3.712393 0.077377 -4.090508 9.424727 -6.531653 29.452335 -2.721522 -2.228343 -15.532020 -0.630999 -1.224220 
-2.199930 45.149147 -0.533703 -4.348890 -7.985050 2.157560 -23.697100 3.812530 -1.053860 11.939300 5.021090 -0.271269 15.526473 -9.316591 -16.418144 15.617100 10.178800 -1.571560 2.000000 -2.000000 0.000000 92.671799 164.839996 -6.481080 41.445702 -0.317329 0.090551 0.053658 -0.053047 -156.227997 -2.000000 2.000000 0.000000 -5.647480 21.100201 77.274696 -33.633202 0.328679 0.075727 179.889999 179.878998 -5.954870 -8.223644 7.682209 -2.759414 38.421013 3.110409 2.554265 -18.580023 3.662543 0.071172 -4.262299 9.379396 -6.500836 29.572762 -2.701834 -2.251179 -15.500092 -0.511476 -1.180997 
-2.131304 45.133678 -0.555616 -4.456610 -7.915750 1.464100 -23.502701 3.881730 -0.899124 12.166800 4.869460 -0.170301 15.515927 -9.603574 -16.165142 15.682400 10.071000 -1.465370 2.000000 -2.000000 0.000000 92.867302 165.307999 -6.323750 40.937901 -0.318127 0.089640 0.053203 -0.051729 -155.729996 -2.000000 2.000000 0.000000 -5.724540 21.676600 77.752899 -34.482800 0.327543 0.077406 179.891006 179.878998 -5.827910 -7.928512 7.501276 -2.375766 38.421722 3.105701 2.562381 -18.642076 3.881887 0.144644 -4.289943 9.157878 -6.287807 29.875107 -2.724741 -2.261797 -15.537237 -0.104390 -1.037040 
-2.062664 45.118076 -0.577531 -4.564310 -7.846440 0.770381 -23.298500 3.960140 -0.747535 12.384400 4.707780 -0.069142 15.504734 -9.895987 -15.899123 15.748000 9.972780 -1.346000 2.000000 -2.000000 0.000000 93.053101 165.776001 -6.156650 40.430099 -0.318917 0.088721 0.052767 -0.050433 -155.242004 -2.000000 2.000000 0.000000 -5.782070 22.243200 78.221397 -35.342201 0.326370 0.079088 179.891006 179.869995 -5.700940 -7.642961 7.323925 -1.994306 38.449455 3.124229 2.558450 -18.690067 4.104103 0.242094 -4.259128 8.922023 -6.056614 30.129471 -2.730328 -2.259266 -15.602798 0.333412 -0.898135 
-1.998497 45.122334 -0.595112 -4.640380 -7.592510 0.223588 -23.279800 4.021080 -0.612976 12.442800 4.737470 -0.000090 15.458817 -10.008500 -15.708728 15.637600 9.938580 -1.323520 2.000000 -2.000000 0.000000 93.121498 165.794998 -5.961290 40.224998 -0.319234 0.088348 0.052185 -0.048638 -154.567993 -2.000000 2.000000 0.000000 -5.799720 23.044399 79.035400 -36.416401 0.324868 0.081165 179.889999 179.878006 -6.218540 -7.353371 6.956907 -1.641992 38.264095 3.113471 2.557251 -18.616318 4.377118 0.342167 -4.218735 8.504116 -5.935145 30.275793 -2.743580 -2.270013 -15.648033 0.713757 -0.778941 
-1.934318 45.126579 -0.612694 -4.716560 -7.348350 -0.324353 -23.261000 4.082020 -0.478410 12.501200 4.767170 0.078788 15.406887 -10.127547 -15.513769 15.526800 9.894750 -1.304500 2.000000 -2.000000 0.000000 93.199501 165.813995 -5.765940 40.029701 -0.319534 0.087991 0.051623 -0.046837 -153.893997 -2.000000 2.000000 0.000000 -5.807550 23.845501 79.855400 -37.490601 0.323327 0.083213 179.889008 179.867996 -6.736100 -7.080980 6.585255 -1.292786 38.136776 3.113413 2.558868 -18.574402 4.631679 0.410149 -4.290452 8.074228 -5.861097 30.606699 -2.772150 -2.272321 -15.752582 1.097048 -0.646273 
-1.872993 45.132782 -0.635540 -4.736150 -7.338410 -0.498435 -23.398001 4.103570 -0.391846 12.375300 4.640000 0.135056 15.366276 -10.141177 -15.451184 15.376800 9.861850 -1.327480 2.000000 -2.000000 0.000000 93.306801 165.638000 -5.678450 39.990601 -0.319594 0.087920 0.051106 -0.045107 -153.250000 -2.000000 2.000000 0.000000 -5.434950 24.998100 80.528900 -38.857800 0.321311 0.085778 179.888000 179.876999 -7.077910 -7.004068 6.491302 -1.156446 38.056870 3.124675 2.544159 -18.536638 4.710294 0.442712 -4.210541 7.940416 -5.883392 30.536819 -2.782896 -2.265971 -15.738565 1.366473 -0.576492 
-1.811656 45.138958 -0.658387 -4.745780 -7.318850 -0.674568 -23.544500 4.115910 -0.301961 12.249600 4.503230 0.183525 15.319740 -10.161189 -15.382358 15.226400 9.819260 -1.352160 2.000000 -2.000000 0.000000 93.414101 165.472000 -5.600710 39.941799 -0.319669 0.087831 0.050608 -0.043373 -152.604996 -2.000000 2.000000 0.000000 -5.042750 26.141001 81.221901 -40.234798 0.319219 0.088311 179.886993 179.876007 -7.429470 -6.929156 6.396513 -1.029808 37.978462 3.119690 2.533268 -18.499865 4.783192 0.471852 -4.199801 7.799431 -5.934853 30.556437 -2.782704 -2.265623 -15.759786 1.628755 -0.499169 
-1.775325 45.159203 -0.695231 -4.736560 -7.377340 -0.572114 -23.495501 4.117250 -0.298865 12.397100 4.446900 0.193549 15.398209 -9.926404 -15.553830 15.189300 9.887730 -1.384850 2.000000 -2.000000 0.000000 93.375198 165.658005 -5.541690 39.863701 -0.319789 0.087688 0.051206 -0.045449 -153.376999 -2.000000 2.000000 0.000000 -4.495660 27.859800 81.436203 -41.963299 0.316508 0.091420 179.888000 179.876999 -7.204860 -6.987921 6.458184 -0.999329 37.910179 3.121287 2.544884 -18.450232 4.555084 0.382235 -4.181077 7.845850 -5.950338 30.359167 -2.793066 -2.261553 -15.631057 1.509450 -0.521794 
-1.738985 45.179569 -0.732077 -4.737190 -7.435740 -0.469660 -23.437099 4.127830 -0.299021 12.554600 4.380920 0.205383 15.459652 -9.697072 -15.710064 15.152100 9.956200 -1.417630 2.000000 -2.000000 0.000000 93.326401 165.843002 -5.492430 39.785599 -0.319908 0.087545 0.051840 -0.047542 -154.158005 -2.000000 2.000000 0.000000 -3.938760 29.568899 81.670097 -43.682098 0.313720 0.094428 179.888000 179.876999 -6.980250 -7.049536 6.514043 -0.948900 37.840691 3.128988 2.538027 -18.376930 4.329389 0.303935 -4.151661 7.898795 -5.974012 30.163755 -2.780756 -2.251642 -15.483718 1.372075 -0.576192 
-1.713450 45.214752 -0.770645 -4.726930 -7.396910 -0.171381 -23.358900 4.082760 -0.475514 12.759100 4.489530 0.118640 15.458605 -9.803473 -15.817951 15.269200 9.904060 -1.436040 2.000000 -2.000000 0.000000 93.111801 166.009995 -5.765490 40.019901 -0.319549 0.087974 0.052135 -0.048482 -154.509995 -2.000000 2.000000 0.000000 -2.942430 32.459599 82.001297 -45.879398 0.310027 0.098149 179.889008 179.878006 -6.394320 -7.095391 6.508807 -0.958355 37.643204 3.140248 2.524725 -18.300457 3.893173 0.160513 -4.123561 7.915879 -5.979258 29.943434 -2.812888 -2.214603 -15.315774 1.020499 -0.658217 
-1.687915 45.249947 -0.809209 -4.726510 -7.357980 0.126911 -23.270700 4.034540 -0.660471 12.963700 4.598170 0.022901 15.468649 -9.910899 -15.937597 15.376100 9.842700 -1.458220 2.000000 -2.000000 0.000000 92.887299 166.175995 -6.038540 40.254299 -0.319189 0.088401 0.052427 -0.049393 -154.850998 -2.000000 2.000000 0.000000 -1.906870 35.350399 82.410599 -48.086399 0.306177 0.101742 179.891006 179.878998 -5.808380 -7.133942 6.498291 -0.977432 37.455982 3.150129 2.520696 -18.217430 3.447466 0.001570 -4.083349 7.916973 -5.973868 29.708990 -2.807453 -2.226462 -15.140332 0.699996 -0.777361 
-1.659583 45.285786 -0.868466 -4.665510 -7.173670 0.368131 -23.434601 3.922640 -0.762905 12.816400 4.625620 -0.041599 15.512383 -9.747122 -16.016260 15.249400 9.904770 -1.498000 2.000000 -2.000000 0.000000 92.809097 165.962006 -6.009740 40.283600 -0.319144 0.088454 0.052673 -0.050147 -155.134995 -2.000000 2.000000 0.000000 0.383816 38.973999 84.583702 -50.859798 0.301147 0.106042 179.889999 179.878006 -6.247830 -7.139638 6.313839 -0.958050 37.091827 3.157097 2.498278 -17.987673 3.264351 -0.055474 -4.192896 7.768603 -5.914993 29.677828 -2.818743 -2.210314 -15.055991 0.404213 -0.859985 
-1.631285 45.321499 -0.927723 -4.594860 -6.999140 0.609307 -23.608299 3.814040 -0.856418 12.678800 4.662810 -0.106783 15.540073 -9.575046 -16.078770 15.132600 9.966490 -1.536340 2.000000 -2.000000 0.000000 92.740601 165.746994 -5.980940 40.303101 -0.319114 0.088490 0.052923 -0.050900 -155.417999 -2.000000 2.000000 0.000000 2.969040 42.529099 87.070297 -53.643101 0.295897 0.110108 179.889008 179.878006 -6.677520 -7.075845 6.146964 -0.939039 36.600052 3.156175 2.454873 -17.710247 3.060078 -0.113438 -4.300887 7.617519 -5.855898 29.638321 -2.822050 -2.211265 -14.985695 0.114144 -0.949991 
-1.579846 45.350502 -0.954371 -4.671260 -6.764770 0.121374 -23.470200 3.809880 -0.674475 12.993400 4.569450 -0.000206 15.511559 -9.573649 -16.149347 15.123400 9.986000 -1.602690 2.000000 -2.000000 0.000000 92.652603 165.746002 -5.853990 40.390999 -0.318978 0.088650 0.052975 -0.051055 -155.475998 -2.000000 2.000000 0.000000 6.663270 46.933601 90.895798 -57.197800 0.288914 0.114921 179.886002 179.876007 -7.781030 -6.744586 5.854253 -0.396624 36.262959 3.193012 2.441456 -17.579613 3.204736 -0.057056 -4.253964 7.310118 -5.439180 29.647936 -2.824333 -2.211613 -14.889556 0.218134 -0.893984 
-1.528428 45.379501 -0.981005 -4.757500 -6.530350 -0.366091 -23.341801 3.805330 -0.493408 13.317600 4.485590 0.104873 15.478033 -9.573750 -16.226595 15.104300 10.005900 -1.660980 2.000000 -2.000000 0.000000 92.564697 165.746002 -5.736800 40.478901 -0.318842 0.088809 0.053027 -0.051211 -155.535004 -2.000000 2.000000 0.000000 11.143900 51.132198 95.501297 -60.752499 0.281647 0.119293 -0.115988 0.126366 171.115005 -6.256437 5.576480 0.150261 35.692417 3.195095 2.399650 -17.392391 3.380510 0.014016 -4.242362 7.001487 -5.027692 29.723955 -2.847864 -2.206728 -14.802244 0.323865 -0.859245 
-1.489537 45.402966 -1.028626 -4.783900 -6.199200 -0.596419 -23.280100 3.706060 -0.424760 13.495000 4.371020 0.142751 15.548022 -9.598470 -16.416996 15.196700 10.088900 -1.724900 2.000000 -2.000000 0.000000 92.545197 165.804001 -5.619480 40.322701 -0.319083 0.088525 0.052639 -0.050043 -155.095993 -2.000000 2.000000 0.000000 17.859699 55.435600 103.730003 -64.326698 0.274080 0.123225 -0.117981 0.127901 170.216995 -6.011511 5.201300 0.582166 35.259411 3.212218 2.400341 -17.114653 3.610893 0.079511 -4.298723 6.551983 -4.969745 29.851419 -2.847924 -2.204922 -14.800588 0.579171 -0.777445 
-1.450646 45.426556 -1.076258 -4.820320 -5.877720 -0.814410 -23.208799 3.610340 -0.347280 13.672300 4.256310 0.170883 15.623807 -9.616781 -16.610493 15.279200 10.172200 -1.792000 2.000000 -2.000000 0.000000 92.525703 165.863007 -5.502150 40.156700 -0.319339 0.088223 0.052260 -0.048873 -154.656006 -2.000000 2.000000 0.000000 26.444799 59.041100 113.813004 -67.891197 0.266305 0.126670 -0.120021 0.129420 169.309006 -5.779124 4.838740 1.013125 34.815971 3.221345 2.369290 -16.850592 3.839451 0.176115 -4.362764 6.105685 -4.911394 29.986053 -2.878652 -2.210662 -14.823259 0.854617 -0.684809 
-1.420910 45.438545 -1.158253 -4.808120 -5.595600 -0.946434 -23.116600 3.498800 -0.145447 13.841100 3.986220 0.263897 15.519344 -9.149927 -16.901363 15.176300 10.339100 -1.953440 2.000000 -2.000000 0.000000 92.603897 166.095993 -5.257470 40.039501 -0.319519 0.088009 0.051971 -0.047960 -154.313995 -2.000000 2.000000 0.000000 36.492599 61.573399 127.508003 -70.215401 0.261126 0.128653 -0.121283 0.130335 168.751999 -5.790480 4.555604 1.363033 34.678631 3.217495 2.360009 -16.739534 3.891892 0.201555 -4.608336 5.727587 -4.901917 30.268147 -2.904981 -2.213385 -14.837901 0.989251 -0.656438 
-1.391151 45.450527 -1.240260 -4.786320 -5.323280 -1.078470 -23.014999 3.392800 0.044016 14.009600 3.715910 0.365121 15.417383 -8.679085 -17.203939 15.073000 10.496400 -2.119070 2.000000 -2.000000 0.000000 92.682098 166.330002 -5.012790 39.931999 -0.319684 0.087813 0.051695 -0.047072 -153.981995 -2.000000 2.000000 0.000000 48.157299 62.778198 142.804993 -72.529800 0.255893 0.130417 -0.122554 0.131238 168.195999 -5.799501 4.264110 1.712476 34.463192 3.209514 2.350407 -16.546608 3.951166 0.227086 -4.845413 5.349327 -4.871164 30.513727 -2.908993 -2.230438 -14.831470 1.129123 -0.614571 
